<svg width="23" height="18" viewBox="0 0 23 18" fill="none" xmlns="http://www.w3.org/2000/svg">
<path d="M0.356283 8.13998L8.14008 0.356182C8.61498 -0.118727 9.38519 -0.118727 9.8601 0.356182C10.3351 0.831188 10.3351 1.6012 9.8601 2.07621L4.15253 7.78377H20.9405C21.6122 7.78377 22.1567 8.32834 22.1567 8.99999C22.1567 9.67153 21.6122 10.2162 20.9405 10.2162H4.15253L9.85991 15.9238C10.3349 16.3988 10.3349 17.1688 9.85991 17.6438C9.6225 17.8811 9.31115 18 8.99989 18C8.68864 18 8.37738 17.8811 8.13988 17.6438L0.356283 9.86C-0.118723 9.38499 -0.118723 8.61498 0.356283 8.13998Z" fill="#1C1C1C"/>
</svg>
