<svg width="23" height="24" viewBox="0 0 23 24" fill="none" xmlns="http://www.w3.org/2000/svg">
<path d="M2.32177 3.48265C2.32177 2.85174 2.85174 2.32177 3.48265 2.32177H7.97476C8.22713 2.32177 8.40379 2.11987 8.40379 1.89274V0.429022C8.40379 0.176656 8.20189 0 7.97476 0H3.48265C1.56467 0 0 1.56467 0 3.48265V7.94953C0 8.20189 0.201893 8.37855 0.429022 8.37855H1.86751C2.11987 8.37855 2.29653 8.17666 2.29653 7.94953V3.48265H2.32177Z" fill="#CCD4FF"/>
<path d="M19.1293 0H14.6372C14.3848 0 14.2082 0.201893 14.2082 0.429022V1.86751C14.2082 2.11987 14.4101 2.29653 14.6372 2.29653H19.1293C19.7602 2.29653 20.2902 2.8265 20.2902 3.45741V7.94953C20.2902 8.20189 20.4921 8.37855 20.7192 8.37855H22.1577C22.4101 8.37855 22.5867 8.17666 22.5867 7.94953V3.48265C22.5867 1.56467 21.0473 0 19.1293 0Z" fill="#CCD4FF"/>
<path d="M20.2902 20.4921C20.2902 21.123 19.7602 21.653 19.1293 21.653H14.6372C14.3848 21.653 14.2082 21.8549 14.2082 22.082V23.5205C14.2082 23.7728 14.4101 23.9495 14.6372 23.9495H19.1293C21.0473 23.9495 22.6119 22.3848 22.6119 20.4669V16.0252C22.6119 15.7728 22.4101 15.5962 22.1829 15.5962H20.7444C20.4921 15.5962 20.3154 15.7981 20.3154 16.0252V20.4921H20.2902Z" fill="#CCD4FF"/>
<path d="M2.32162 20.4921V16.0252C2.32162 15.7728 2.11972 15.5962 1.89259 15.5962H0.454108C0.201742 15.5962 0.0250854 15.7981 0.0250854 16.0252V20.5173C0.0250854 22.4353 1.58975 24 3.50774 24H7.99985C8.25222 24 8.42887 23.7981 8.42887 23.571V22.1325C8.42887 21.8801 8.22698 21.7034 7.99985 21.7034H3.50774C2.85158 21.653 2.32162 21.1482 2.32162 20.4921Z" fill="#CCD4FF"/>
<path d="M20.9968 10.8264H1.61506C1.36269 10.8264 1.18604 11.0283 1.18604 11.2554V12.6939C1.18604 12.9463 1.38793 13.1229 1.61506 13.1229H20.9968C21.2491 13.1229 21.4258 12.9211 21.4258 12.6939V11.2554C21.4258 11.0283 21.2491 10.8264 20.9968 10.8264Z" fill="#CCD4FF"/>
<path d="M6.40998 8.35317H16.2018C16.4541 8.35317 16.6308 8.15128 16.6308 7.92415V6.48566C16.6308 6.2333 16.4289 6.05664 16.2018 6.05664H6.40998C6.15761 6.05664 5.98096 6.25853 5.98096 6.48566V7.92415C5.98096 8.15128 6.15761 8.35317 6.40998 8.35317Z" fill="#CCD4FF"/>
<path d="M16.6308 17.4891V16.0506C16.6308 15.7982 16.4289 15.6216 16.2018 15.6216H6.40998C6.15761 15.6216 5.98096 15.8235 5.98096 16.0506V17.4891C5.98096 17.7415 6.18285 17.9181 6.40998 17.9181H16.2018C16.4541 17.9433 16.6308 17.7415 16.6308 17.4891Z" fill="#CCD4FF"/>
</svg>
